<svg width="60" height="60" viewBox="0 0 60 60" fill="none" xmlns="http://www.w3.org/2000/svg">
<path d="M47.4976 55H12.4976C11.1715 55 9.89971 54.4732 8.96202 53.5355C8.02434 52.5979 7.49756 51.3261 7.49756 50V15C7.49756 13.6739 8.02434 12.4021 8.96202 11.4645C9.89971 10.5268 11.1715 10 12.4976 10H17.4976V5H22.4976V10H37.4976V5H42.4976V10H47.4976C48.8236 10 50.0954 10.5268 51.0331 11.4645C51.9708 12.4021 52.4976 13.6739 52.4976 15V50C52.4976 51.3261 51.9708 52.5979 51.0331 53.5355C50.0954 54.4732 48.8236 55 47.4976 55ZM12.4976 25V50H47.4976V25H12.4976ZM12.4976 15V20H47.4976V15H12.4976Z" fill="black"/>
</svg>
