<svg width="60" height="60" viewBox="0 0 60 60" fill="none" xmlns="http://www.w3.org/2000/svg">
<path d="M41.25 50.9625L36.3937 46.1063L33.75 48.75L41.25 56.25L56.25 41.25L53.6063 38.6063L41.25 50.9625Z" fill="black"/>
<path d="M46.875 9.375H41.25V7.5C41.247 6.50635 40.851 5.55425 40.1484 4.85163C39.4458 4.14901 38.4936 3.75297 37.5 3.75H22.5C21.5064 3.75297 20.5542 4.14901 19.8516 4.85163C19.149 5.55425 18.753 6.50635 18.75 7.5V9.375H13.125C12.1314 9.37797 11.1792 9.77401 10.4766 10.4766C9.77401 11.1792 9.37797 12.1314 9.375 13.125V52.5C9.37797 53.4936 9.77401 54.4458 10.4766 55.1484C11.1792 55.851 12.1314 56.247 13.125 56.25H30V52.5H13.125V13.125H18.75V18.75H41.25V13.125H46.875V33.75H50.625V13.125C50.622 12.1314 50.226 11.1792 49.5234 10.4766C48.8208 9.77401 47.8686 9.37797 46.875 9.375ZM37.5 15H22.5V7.5H37.5V15Z" fill="black"/>
</svg>
