<svg width="60" height="60" viewBox="0 0 60 60" fill="none" xmlns="http://www.w3.org/2000/svg">
<g clip-path="url(#clip0_21_71)">
<path opacity="0.2" d="M50.6251 20.625V43.125C50.6282 43.8646 50.4848 44.5974 50.2032 45.2813C49.9216 45.9651 49.5074 46.5864 48.9844 47.1094C48.4615 47.6323 47.8402 48.0466 47.1563 48.3281C46.4725 48.6097 45.7396 48.7531 45.0001 48.75H15C14.2605 48.7531 13.5276 48.6097 12.8438 48.3281C12.1599 48.0466 11.5386 47.6323 11.0157 47.1094C10.4927 46.5864 10.0785 45.9651 9.79691 45.2813C9.51533 44.5974 9.37195 43.8646 9.37505 43.125V20.625C9.37505 20.1277 9.57259 19.6508 9.92422 19.2992C10.2759 18.9475 10.7528 18.75 11.25 18.75H48.7501C49.2473 18.75 49.7242 18.9475 50.0759 19.2992C50.4275 19.6508 50.6251 20.1277 50.6251 20.625Z" fill="black"/>
<path d="M20.625 11.25V3.75C20.625 3.25272 20.8226 2.77581 21.1742 2.42417C21.5258 2.07254 22.0027 1.875 22.5 1.875C22.9973 1.875 23.4742 2.07254 23.8258 2.42417C24.1775 2.77581 24.375 3.25272 24.375 3.75V11.25C24.375 11.7473 24.1775 12.2242 23.8258 12.5758C23.4742 12.9275 22.9973 13.125 22.5 13.125C22.0027 13.125 21.5258 12.9275 21.1742 12.5758C20.8226 12.2242 20.625 11.7473 20.625 11.25ZM30 13.125C30.4973 13.125 30.9742 12.9275 31.3258 12.5758C31.6775 12.2242 31.875 11.7473 31.875 11.25V3.75C31.875 3.25272 31.6775 2.77581 31.3258 2.42417C30.9742 2.07254 30.4973 1.875 30 1.875C29.5027 1.875 29.0258 2.07254 28.6742 2.42417C28.3226 2.77581 28.125 3.25272 28.125 3.75V11.25C28.125 11.7473 28.3226 12.2242 28.6742 12.5758C29.0258 12.9275 29.5027 13.125 30 13.125ZM37.5 13.125C37.9973 13.125 38.4742 12.9275 38.8258 12.5758C39.1775 12.2242 39.375 11.7473 39.375 11.25V3.75C39.375 3.25272 39.1775 2.77581 38.8258 2.42417C38.4742 2.07254 37.9973 1.875 37.5 1.875C37.0027 1.875 36.5258 2.07254 36.1742 2.42417C35.8225 2.77581 35.625 3.25272 35.625 3.75V11.25C35.625 11.7473 35.8225 12.2242 36.1742 12.5758C36.5258 12.9275 37.0027 13.125 37.5 13.125ZM59.25 24L52.5 29.0625V43.125C52.4938 45.1122 51.7017 47.0163 50.2965 48.4215C48.8913 49.8267 46.9872 50.6188 45 50.625H15C13.0128 50.6188 11.1087 49.8267 9.70354 48.4215C8.29835 47.0163 7.50619 45.1122 7.50001 43.125V29.0625L0.750008 24C0.352183 23.7016 0.0891785 23.2574 0.0188524 22.7652C-0.0514738 22.2729 0.0766391 21.7728 0.375008 21.375C0.673376 20.9772 1.11756 20.7142 1.60984 20.6438C2.10213 20.5735 2.60218 20.7016 3.00001 21L7.50001 24.375V20.625C7.50001 19.6304 7.8951 18.6766 8.59836 17.9734C9.30162 17.2701 10.2554 16.875 11.25 16.875H48.75C49.7446 16.875 50.6984 17.2701 51.4017 17.9734C52.1049 18.6766 52.5 19.6304 52.5 20.625V24.375L57 21C57.3978 20.7016 57.8979 20.5735 58.3902 20.6438C58.8825 20.7142 59.3266 20.9772 59.625 21.375C59.9234 21.7728 60.0515 22.2729 59.9812 22.7652C59.9108 23.2574 59.6478 23.7016 59.25 24ZM48.75 20.625H11.25V43.125C11.25 44.1196 11.6451 45.0734 12.3484 45.7766C13.0516 46.4799 14.0054 46.875 15 46.875H45C45.9946 46.875 46.9484 46.4799 47.6517 45.7766C48.3549 45.0734 48.75 44.1196 48.75 43.125V20.625Z" fill="black"/>
</g>
<defs>
<clipPath id="clip0_21_71">
<rect width="60" height="60" fill="white"/>
</clipPath>
</defs>
</svg>
