<svg width="60" height="60" viewBox="0 0 60 60" fill="none" xmlns="http://www.w3.org/2000/svg">
<path d="M30 11.25C17.5 11.25 6.825 19.025 2.5 30C6.825 40.975 17.5 48.75 30 48.75C42.5 48.75 53.175 40.975 57.5 30C53.175 19.025 42.5 11.25 30 11.25ZM30 42.5C23.1 42.5 17.5 36.9 17.5 30C17.5 23.1 23.1 17.5 30 17.5C36.9 17.5 42.5 23.1 42.5 30C42.5 36.9 36.9 42.5 30 42.5ZM30 22.5C25.85 22.5 22.5 25.85 22.5 30C22.5 34.15 25.85 37.5 30 37.5C34.15 37.5 37.5 34.15 37.5 30C37.5 25.85 34.15 22.5 30 22.5Z" fill="black"/>
</svg>
