<svg width="60" height="60" viewBox="0 0 60 60" fill="none" xmlns="http://www.w3.org/2000/svg">
<path d="M30 5C16.2 5 5 16.2 5 30C5 43.8 16.2 55 30 55C43.8 55 55 43.8 55 30C55 16.2 43.8 5 30 5ZM32.5 47.5H27.5V42.5H32.5V47.5ZM37.675 28.125L35.425 30.425C33.625 32.25 32.5 33.75 32.5 37.5H27.5V36.25C27.5 33.5 28.625 31 30.425 29.175L33.525 26.025C34.45 25.125 35 23.875 35 22.5C35 19.75 32.75 17.5 30 17.5C27.25 17.5 25 19.75 25 22.5H20C20 16.975 24.475 12.5 30 12.5C35.525 12.5 40 16.975 40 22.5C40 24.7 39.1 26.7 37.675 28.125Z" fill="black"/>
</svg>
