<svg width="60" height="60" viewBox="0 0 60 60" fill="none" xmlns="http://www.w3.org/2000/svg">
<path d="M55 31.6667C54.7807 31.668 54.5633 31.6259 54.3602 31.543C54.1571 31.46 53.9724 31.3378 53.8167 31.1833L30 7.35001L6.18338 31.1833C5.86454 31.4564 5.45442 31.5991 5.03496 31.5829C4.6155 31.5667 4.2176 31.3928 3.92077 31.096C3.62395 30.7991 3.45006 30.4012 3.43386 29.9818C3.41766 29.5623 3.56034 29.1522 3.83338 28.8333L28.8334 3.83335C29.1456 3.52293 29.5681 3.34869 30.0084 3.34869C30.4487 3.34869 30.8711 3.52293 31.1834 3.83335L56.1834 28.8333C56.4127 29.0673 56.568 29.3637 56.6299 29.6854C56.6917 30.0072 56.6573 30.34 56.5311 30.6423C56.4048 30.9447 56.1922 31.2031 55.9199 31.3853C55.6476 31.5674 55.3277 31.6653 55 31.6667V31.6667Z" fill="black"/>
<path d="M30 12.9833L10 33.05V53.3333C10 54.2174 10.3512 55.0652 10.9763 55.6904C11.6014 56.3155 12.4493 56.6667 13.3333 56.6667H25V40H35V56.6667H46.6667C47.5507 56.6667 48.3986 56.3155 49.0237 55.6904C49.6488 55.0652 50 54.2174 50 53.3333V32.9333L30 12.9833Z" fill="black"/>
</svg>
