<svg width="60" height="60" viewBox="0 0 60 60" fill="none" xmlns="http://www.w3.org/2000/svg">
<path d="M22.7812 52.5234V50.9298C22.8164 50.8009 22.875 50.6837 22.8984 50.5548C23.4141 47.2033 26.2031 44.5548 29.4726 44.3322C33.1288 44.0743 36.2226 46.1602 37.2304 49.5587C37.3593 50.004 37.4531 50.4727 37.5703 50.9298V52.5235C37.5351 52.629 37.4765 52.7227 37.4648 52.8399C36.9609 55.9336 34.7343 58.2891 31.6874 58.957C31.4531 59.0039 31.2187 59.0742 30.9843 59.1328H29.3906C29.2851 59.0977 29.1796 59.0391 29.0742 59.0274C26.0273 58.5352 23.707 56.3672 23.0038 53.3555C22.9335 53.0625 22.8515 52.793 22.7812 52.5234H22.7812ZM37.5703 7.47675L37.5703 9.07061C37.5351 9.19952 37.4765 9.31671 37.4648 9.44562C36.9374 12.8206 34.1367 15.4573 30.832 15.6683C27.1874 15.9026 24.1054 13.7933 23.1093 10.3831C22.9804 9.94946 22.8867 9.50421 22.7812 9.07056V7.47681C22.8163 7.37134 22.8749 7.27759 22.8984 7.17212C23.4609 4.12524 25.2304 2.13306 28.1835 1.18384C28.5703 1.05493 28.9804 0.984619 29.3788 0.87915H30.9726C31.0781 0.914307 31.1835 0.9729 31.289 0.984619C34.3476 1.48853 36.6562 3.64478 37.3593 6.65649C37.4297 6.93774 37.5 7.20728 37.5703 7.47675ZM37.5703 29.2034V30.7971C37.5351 30.926 37.4765 31.0432 37.4531 31.1721C36.9257 34.5354 34.0195 37.2424 30.7382 37.3831C27.0468 37.5471 23.9179 35.3206 23.039 31.887C22.9453 31.5237 22.8632 31.1604 22.7812 30.7971V29.2034C22.8163 29.0745 22.8749 28.9573 22.8984 28.8284C23.414 25.4651 26.332 22.758 29.6132 22.6057C33.3046 22.4299 36.4335 24.6682 37.3124 28.1018C37.4062 28.4768 37.4882 28.8401 37.5703 29.2034V29.2034Z" fill="black"/>
</svg>
