<svg width="60" height="60" viewBox="0 0 60 60" fill="none" xmlns="http://www.w3.org/2000/svg">
<path d="M35.625 52.5C35.625 52.9973 35.4275 53.4742 35.0758 53.8258C34.7242 54.1775 34.2473 54.375 33.75 54.375H26.25C25.7527 54.375 25.2758 54.1775 24.9242 53.8258C24.5725 53.4742 24.375 52.9973 24.375 52.5C24.375 52.0027 24.5725 51.5258 24.9242 51.1742C25.2758 50.8226 25.7527 50.625 26.25 50.625H33.75C34.2473 50.625 34.7242 50.8226 35.0758 51.1742C35.4275 51.5258 35.625 52.0027 35.625 52.5ZM30 25.3125C30.5563 25.3125 31.1 25.1476 31.5625 24.8385C32.0251 24.5295 32.3855 24.0902 32.5984 23.5763C32.8113 23.0624 32.867 22.4969 32.7585 21.9513C32.6499 21.4058 32.3821 20.9046 31.9887 20.5113C31.5954 20.1179 31.0943 19.8501 30.5487 19.7416C30.0031 19.633 29.4376 19.6887 28.9237 19.9016C28.4098 20.1145 27.9705 20.475 27.6615 20.9375C27.3524 21.4 27.1875 21.9438 27.1875 22.5C27.1875 23.2459 27.4838 23.9613 28.0113 24.4888C28.5387 25.0162 29.2541 25.3125 30 25.3125ZM52.2656 36.9375L49.3594 49.9688C49.2227 50.5904 48.929 51.1666 48.5064 51.6425C48.0838 52.1185 47.5464 52.4782 46.9453 52.6875C46.5376 52.8257 46.1102 52.897 45.6797 52.8985C44.836 52.8938 44.0185 52.6048 43.3594 52.0781L36.8437 46.875H23.1563L16.6406 52.0781C15.9815 52.6048 15.164 52.8938 14.3203 52.8985C13.8898 52.897 13.4624 52.8257 13.0547 52.6875C12.4536 52.4782 11.9162 52.1185 11.4936 51.6425C11.071 51.1666 10.7774 50.5904 10.6406 49.9688L7.73438 36.9375C7.61458 36.3769 7.62409 35.7964 7.76216 35.2401C7.90024 34.6837 8.16326 34.1661 8.53125 33.7266L15.4688 25.3828C15.6754 22.5139 16.3154 19.6928 17.3672 17.0156C20.1094 9.93752 24.9844 5.29689 27.6562 3.16408C28.3222 2.63082 29.151 2.34222 30.0041 2.34648C30.8573 2.35075 31.6831 2.64762 32.3438 3.18752C34.9922 5.32033 39.7969 9.96096 42.5156 17.0391C43.5287 19.6619 44.1601 22.4166 44.3906 25.2188L51.4688 33.7266C51.8367 34.1661 52.0998 34.6837 52.2378 35.2401C52.3759 35.7964 52.3854 36.3769 52.2656 36.9375V36.9375ZM23.6016 43.125H36.375C39.7031 36.7969 46.4766 19.4766 30 6.09377C25.5938 9.60939 12.3516 22.5703 23.6016 43.125V43.125ZM20.0859 44.5313C17.6484 39.9375 16.1563 35.4531 15.6094 31.0781L11.4141 36.1172L14.2969 49.1485L20.0859 44.5313ZM48.5859 36.1172L44.2969 30.961C43.7812 35.3672 42.3281 39.8906 39.8906 44.5078L45.7031 49.1485L48.5859 36.1172Z" fill="black"/>
</svg>
