<svg width="60" height="60" viewBox="0 0 60 60" fill="none" xmlns="http://www.w3.org/2000/svg">
<path d="M58.8 48C57.5777 47.9998 56.3698 47.7375 55.2576 47.2308C54.1108 46.7099 52.8666 46.4383 51.6072 46.434C50.345 46.439 49.0982 46.7105 47.9484 47.2308C46.8362 47.7371 45.6285 47.9991 44.4066 47.9991C43.1846 47.9991 41.9769 47.7371 40.8648 47.2308C39.7144 46.7133 38.4685 46.4419 37.2072 46.434C35.9451 46.4399 34.6985 46.7114 33.5484 47.2308C32.4341 47.7371 31.2244 47.999 30.0006 47.999C28.7767 47.999 27.567 47.7371 26.4528 47.2308C25.3081 46.7114 24.0665 46.4398 22.8096 46.434C21.5479 46.4399 20.3017 46.7114 19.152 47.2308C18.038 47.7374 16.8285 47.9995 15.6048 47.9995C14.381 47.9995 13.1715 47.7374 12.0576 47.2308C10.9082 46.7104 9.66169 46.4388 8.39995 46.434C7.14272 46.4412 5.90105 46.7126 4.75555 47.2308C3.63833 47.7365 2.42629 47.9987 1.19995 48V42.7248C2.42443 42.7179 3.63451 42.4602 4.75555 41.9676C5.89797 41.4388 7.1411 41.1629 8.39995 41.1588C9.70315 41.1588 10.9524 41.4588 12.0576 41.9676C13.1723 42.4602 14.3765 42.7179 15.5952 42.7248C16.8202 42.7198 18.0311 42.462 19.152 41.9676C20.2986 41.4374 21.5463 41.1615 22.8096 41.1588C24.1032 41.1588 25.3464 41.4588 26.4528 41.9676C27.5724 42.4607 28.7814 42.7184 30.0048 42.7248C31.2254 42.7184 32.4317 42.4607 33.5484 41.9676C34.6954 41.4376 35.9435 41.1617 37.2072 41.1588C38.4948 41.1588 39.7428 41.4588 40.8648 41.9676C41.9388 42.4392 43.1448 42.7248 44.4048 42.7248C45.6255 42.7195 46.832 42.4617 47.9484 41.9676C49.0951 41.4367 50.3434 41.1607 51.6072 41.1588C52.9104 41.1588 54.1572 41.4588 55.2576 41.9676C56.3736 42.4614 57.5796 42.7192 58.8 42.7248V48V48ZM50.4576 33.0768C54.24 33.0768 57.3096 30.0168 57.3096 26.2632C57.3096 22.506 54.24 19.4616 50.4576 19.4616C46.6692 19.4616 43.6032 22.5072 43.6032 26.2632C43.6032 30.0168 46.3968 33.0768 50.4576 33.0768ZM10.5492 36.9072C11.0808 37.0332 11.5824 37.2168 12.0588 37.4304C13.1714 37.932 14.3771 38.1941 15.5976 38.1996C16.8576 38.1996 18.0804 37.914 19.1532 37.4304C20.3015 36.9052 21.548 36.6287 22.8108 36.6192C24.1044 36.6192 25.35 36.9336 26.454 37.4304C27.5711 37.9325 28.7812 38.1946 30.006 38.1996C31.254 38.1996 32.4756 37.914 33.5484 37.4304C34.6972 36.9052 35.944 36.6288 37.2072 36.6192C38.496 36.6192 39.7452 36.9336 40.8648 37.4304C41.94 37.9128 43.1448 38.1996 44.4072 38.1996C45.3252 38.1996 46.2096 38.0448 47.0436 37.7844L35.6136 17.3172L48.9084 14.9088C50.8596 14.5392 52.2756 13.0176 52.2756 11.07C52.2756 8.92201 50.5152 7.20001 48.3612 7.20001L47.9172 7.21321L27.3804 10.9236C25.9392 11.2512 24.03 13.3464 25.1172 15.9168L25.2924 16.3308L30.6516 25.9344L10.5492 36.9072V36.9072Z" fill="black"/>
</svg>
