<svg width="60" height="60" viewBox="0 0 60 60" fill="none" xmlns="http://www.w3.org/2000/svg">
<path d="M22.5 48.75C22.5 52.8938 18.3 56.25 13.125 56.25C7.95 56.25 3.75 52.8938 3.75 48.75C3.75 44.61 7.95 41.25 13.125 41.25C18.3 41.25 22.5 44.61 22.5 48.75ZM56.25 41.25C56.25 45.3938 52.05 48.75 46.875 48.75C41.7 48.75 37.5 45.3938 37.5 41.25C37.5 37.1062 41.7 33.75 46.875 33.75C52.05 33.75 56.25 37.1062 56.25 41.25Z" fill="black"/>
<path fill-rule="evenodd" clip-rule="evenodd" d="M52.5 41.25V7.5H56.25V41.25H52.5ZM22.5 11.25V48.75H18.75V11.25H22.5Z" fill="black"/>
<path d="M18.75 10.8938C18.75 9.96411 19.0953 9.0676 19.7189 8.37815C20.3425 7.6887 21.2 7.25547 22.125 7.1625L52.125 4.1625C52.6465 4.1101 53.1731 4.16757 53.671 4.33123C54.1689 4.49488 54.6269 4.76108 55.0156 5.11265C55.4043 5.46422 55.7149 5.89336 55.9275 6.37238C56.1402 6.8514 56.25 7.36967 56.25 7.89375V11.25L18.75 15V10.8938Z" fill="black"/>
</svg>
