<svg width="60" height="60" viewBox="0 0 60 60" fill="none" xmlns="http://www.w3.org/2000/svg">
<path d="M12.5 55H47.5C50.2575 55 52.5 52.7575 52.5 50V12.5C52.5 9.7425 50.2575 7.5 47.5 7.5H42.5C42.5 6.83696 42.2366 6.20107 41.7678 5.73223C41.2989 5.26339 40.663 5 40 5H20C19.337 5 18.7011 5.26339 18.2322 5.73223C17.7634 6.20107 17.5 6.83696 17.5 7.5H12.5C9.7425 7.5 7.5 9.7425 7.5 12.5V50C7.5 52.7575 9.7425 55 12.5 55ZM12.5 12.5H17.5V17.5H42.5V12.5H47.5V50H12.5V12.5Z" fill="black"/>
<path d="M27.5 33.965L23.0175 29.4825L19.4825 33.0175L27.5 41.035L40.5175 28.0175L36.9825 24.4825L27.5 33.965Z" fill="black"/>
</svg>
