<svg width="60" height="60" viewBox="0 0 60 60" fill="none" xmlns="http://www.w3.org/2000/svg">
<path d="M52.9385 32.9375C53.067 32 53.1313 31.0312 53.1313 30C53.1313 29 53.067 28 52.9064 27.0625L59.4281 22.125C60.0064 21.6875 60.1671 20.8437 59.8137 20.2187L53.6453 9.84375C53.2598 9.15625 52.4566 8.9375 51.7498 9.15625L44.0715 12.1562C42.4652 10.9687 40.7625 9.96875 38.867 9.21875L37.7104 1.28125C37.5819 0.531249 36.9394 0 36.1683 0H23.8317C23.0606 0 22.4502 0.531249 22.3217 1.28125L21.1651 9.21875C19.2697 9.96875 17.5348 11 15.9606 12.1562L8.28229 9.15625C7.5755 8.90625 6.77233 9.15625 6.38681 9.84375L0.25059 20.2187C-0.134931 20.875 -0.00642461 21.6875 0.636111 22.125L7.15785 27.0625C6.99722 28 6.86871 29.0312 6.86871 30C6.86871 30.9687 6.93296 32 7.0936 32.9375L0.571858 37.875C-0.00642456 38.3125 -0.167058 39.1562 0.186337 39.7812L6.35468 50.1562C6.7402 50.8437 7.54337 51.0625 8.25016 50.8437L15.9285 47.8437C17.5348 49.0312 19.2375 50.0312 21.133 50.7812L22.2896 58.7187C22.4502 59.4687 23.0606 60 23.8317 60H36.1683C36.9394 60 37.5819 59.4687 37.6783 58.7187L38.8349 50.7812C40.7304 50.0312 42.4652 49.0312 44.0394 47.8437L51.7177 50.8437C52.4245 51.0937 53.2277 50.8437 53.6132 50.1562L59.7815 39.7812C60.1671 39.0937 60.0064 38.3125 59.396 37.875L52.9385 32.9375ZM30 41.25C23.6389 41.25 18.4344 36.1875 18.4344 30C18.4344 23.8125 23.6389 18.75 30 18.75C36.3611 18.75 41.5656 23.8125 41.5656 30C41.5656 36.1875 36.3611 41.25 30 41.25Z" fill="black"/>
</svg>
