<svg width="60" height="60" viewBox="0 0 60 60" fill="none" xmlns="http://www.w3.org/2000/svg">
<path d="M36 9.60001V49.2H7.20002V9.60001H36ZM40.8 4.80001H2.40002V55.2H40.8V4.80001ZM10.8 14.4H32.4V19.2H10.8V14.4ZM10.8 22.8H32.4V27.6H10.8V22.8ZM10.8 31.2H32.4V36H10.8V31.2ZM10.8 39.6H32.4V44.4H10.8V39.6ZM48 14.4H57.6V48H48V14.4ZM52.8072 1.20001C50.1744 1.20001 48 3.31801 48 5.92441V10.8H57.6V5.92441C57.6 3.31801 55.4292 1.20001 52.8072 1.20001ZM47.9256 51.6L52.7748 59.2644L57.6 51.6H47.9256Z" fill="black"/>
</svg>
